<?xml version="1.0" standalone="no"?><!DOCTYPE svg PUBLIC "-//W3C//DTD SVG 1.1//EN" "http://www.w3.org/Graphics/SVG/1.1/DTD/svg11.dtd"><svg t="1600852108069" class="icon" viewBox="0 0 1024 1024" version="1.1" xmlns="http://www.w3.org/2000/svg" p-id="3335" xmlns:xlink="http://www.w3.org/1999/xlink" width="200" height="200"><defs><style type="text/css"></style></defs><path d="M143.808 209.376v601.696h737.376V209.376H143.808z m276.512 386.816v-128.928h184.352v128.928h-184.352z m184.352 42.976v128.928h-184.352v-128.928h184.352z m0-343.84v128.928h-184.352V295.328h184.352z m-230.432 0v128.928H189.888V295.328h184.352z m-184.352 171.936h184.352v128.928H189.888v-128.928z m460.864 0h184.352v128.928h-184.352v-128.928z m0-42.976V295.36h184.352v128.928h-184.352zM189.888 639.168h184.352v128.928H189.888v-128.928z m460.864 128.928v-128.928h184.352v128.928h-184.352z" p-id="3336"></path></svg>